<!-- icon666.com - MILLIONS vector ICONS FREE --><svg id="Capa_1" enable-background="new 0 0 512 512" viewBox="0 0 512 512" xmlns="http://www.w3.org/2000/svg"><g><g><path d="m256 194.47-17.1-148.19c-.87-7.57-7.28-13.28-14.9-13.28h-64c-4.28 0-8.35 1.83-11.2 5.02-2.84 3.19-4.19 7.45-3.7 11.7l24 208c.87 7.57 7.28 13.28 14.9 13.28h64c2.86 0 5.63-.83 8-2.33l33.263-43.689z" fill="#77b02a"></path></g><g><path d="m366.9 49.72-24 208c-.87 7.57-7.28 13.28-14.9 13.28h-64c-2.86 0-5.63-.83-8-2.33v-74.2l17.1-148.19c.87-7.57 7.28-13.28 14.9-13.28h64c4.28 0 8.35 1.83 11.2 5.02 2.84 3.19 4.19 7.45 3.7 11.7z" fill="#5b8a1c"></path></g><g><path d="m256 0h-32c-8.28 0-15 6.72-15 15v209c0 8.28 6.72 15 15 15h32c49.62-122.73 0-239 0-239z" fill="#92d431"></path></g><g><path d="m303 15v209c0 8.28-6.72 15-15 15h-32v-239h32c8.28 0 15 6.72 15 15z" fill="#77b02a"></path></g><g><path d="m256 512c-8.28 0-15-6.72-15-15v-18.84c-8.28-.9-16.5-2.54-24.55-4.88-8.29 18.45-24.32 32.51-44.39 38.16-1.36.38-2.72.56-4.07.56-6.55 0-12.57-4.32-14.43-10.94-2.24-7.97 2.4-16.26 10.38-18.5 10.97-3.09 19.8-10.61 24.63-20.53-11.36-5.96-22.01-13.38-31.55-22.11-8.37-7.66-15.62-16.02-21.7-24.92 5.01-14.81-14.72-29.58-15.27-29.99-.01-.01-.01-.01-.01-.01-4.63-13.14-7.04-26.93-7.04-41 0-20.4 5.06-42.9 14.25-65 22.54-9.64 15.21-30 15.21-30 3.89-6.45 8.12-12.75 12.67-18.84 29.07-38.87 65.83-61.16 100.87-61.16 0 0 27.58 267.24 0 343z" fill="#ffe791"></path></g><g><path d="m398.08 359c-3.73 30.28-18.7 58.58-43.1 80.92-9.54 8.73-20.19 16.15-31.55 22.11 4.83 9.92 13.66 17.44 24.63 20.53 7.98 2.24 12.62 10.53 10.38 18.5-1.86 6.62-7.88 10.94-14.43 10.94-1.35 0-2.71-.18-4.07-.56-20.07-5.65-36.1-19.71-44.39-38.16-8.05 2.34-16.27 3.98-24.55 4.88v18.84c0 8.28-6.72 15-15 15v-343c35.04 0 71.8 22.29 100.87 61.16 22.8 30.5 37.66 66.41 41.27 98.84 0 0-9.96 16.36-.06 30z" fill="#fdcf76"></path></g><g><path d="m199 400c0 8.28-6.72 15-15 15h-48.68c-6.45-9.45-11.57-19.52-15.28-30h63.96c8.28 0 15 6.72 15 15z" fill="#fdcf76"></path></g><g><path d="m199 264c0 8.28-6.72 15-15 15h-56.75c4.22-10.17 9.32-20.25 15.21-30h41.54c8.28 0 15 6.72 15 15z" fill="#fdcf76"></path></g><g><path d="m399 344c0 5.04-.31 10.05-.92 15h-46.08c-8.28 0-15-6.72-15-15s6.72-15 15-15h46.14c.57 5.1.86 10.11.86 15z" fill="#f6bc53"></path></g></g></svg>