<!-- icon666.com - MILLIONS vector ICONS FREE --><svg id="Layer_1" enable-background="new 0 0 512 512" viewBox="0 0 512 512" xmlns="http://www.w3.org/2000/svg"><g><path d="m424.7 419.1 11-11c10.8-10.8 10.5-28.3-.5-38.7l-205.9-194.8c-10.6-10.1-27.3-9.8-37.7.5-10.3 10.3-10.6 27-.5 37.7l194.9 205.8c10.5 11 28 11.3 38.7.5z" fill="#fcb43b"></path><path d="m184.7 109.4-87.9 87.9c-4.5 4.5-4.5 11.8 0 16.2l44.4 44.4c4.5 4.5 11.8 4.5 16.2 0l89.8-89.8 40.1-40.1c4.5-4.5 4.5-11.8 0-16.2l-23.5-23.5c-3.1-3.1-7.6-4.2-11.8-2.8l-62.9 21.1c-1.6.6-3.1 1.6-4.4 2.8z" fill="#e7e7e6"></path><path d="m166.4 260.6-22.5 22.5c-4.4 4.4-11.6 4.4-16 0l-56.2-56.2c-4.4-4.4-4.4-11.6 0-16l22.5-22.5c4.4-4.4 11.6-4.4 16 0l56.2 56.2c4.4 4.5 4.4 11.6 0 16z" fill="#efefef"></path></g></svg>