<!-- icon666.com - MILLIONS vector ICONS FREE --><svg viewBox="0 -37 512.001 512" xmlns="http://www.w3.org/2000/svg"><path d="m0 218.710938c0 120.792968 97.921875 218.710937 218.710938 218.710937 63.980468 0 168.699218-32.261719 210.917968-46.183594 8.214844-2.707031 9.625-13.710937 2.371094-18.425781-8.789062-5.714844-20.9375-12.425781-35.859375-17.765625-8.257813-2.957031-9.324219-14.179687-1.753906-18.605469 39.171875-22.910156 117.613281-74.222656 117.613281-117.730468 0-43.503907-78.441406-94.820313-117.609375-117.726563-7.570313-4.429687-6.507813-15.652344 1.75-18.605469 14.921875-5.339844 27.070313-12.054687 35.863281-17.769531 7.25-4.710937 5.84375-15.714844-2.371094-18.425781-42.21875-13.921875-146.941406-46.183594-210.917968-46.183594-120.792969 0-218.714844 97.921875-218.714844 218.710938zm0 0" fill="#fb695b"></path><path d="m396.214844 218.710938c0 97.875-79.628906 177.503906-177.503906 177.503906s-177.503907-79.628906-177.503907-177.503906 79.628907-177.503907 177.503907-177.503907 177.503906 79.628907 177.503906 177.503907zm0 0" fill="#ffaa75"></path><path d="m157.320312 348.542969h78.484376c73.421874 0 107.074218-58.363281 107.074218-58.363281h158.820313c5.691406 0 10.300781-4.609376 10.300781-10.300782v-136.992187c0-5.691407-4.609375-10.300781-10.300781-10.300781h-344.378907zm0 0" fill="#ffc2b6"></path><path d="m234.390625 329.257812c0 18.617188-15.089844 33.707032-33.703125 33.707032h-68.707031c-18.277344 0-33.09375-14.816406-33.09375-33.09375v-1.226563c0-18.277343 14.816406-33.09375 33.09375-33.09375h68.707031c18.613281.003907 33.703125 15.09375 33.703125 33.707031zm0 0" fill="#ffddcf"></path><path d="m200.6875 332.058594h-68.707031c-12.9375 0-24.136719-7.429688-29.578125-18.253906-2.242188 4.464843-3.515625 9.503906-3.515625 14.84375v1.222656c0 18.277344 14.816406 33.09375 33.09375 33.09375h68.707031c18.613281 0 33.703125-15.089844 33.703125-33.707032 0-5.570312-1.359375-10.820312-3.753906-15.453124-5.601563 10.839843-16.90625 18.253906-29.949219 18.253906zm0 0" fill="#ffcbbe"></path><path d="m217.484375 261.847656c0 18.613282-15.089844 33.707032-33.707031 33.707032h-68.703125c-18.277344 0-33.09375-14.816407-33.09375-33.09375v-1.226563c0-18.277344 14.816406-33.09375 33.09375-33.09375h68.703125c18.617187 0 33.707031 15.09375 33.707031 33.707031zm0 0" fill="#ffddcf"></path><path d="m183.78125 264.648438h-68.707031c-12.9375 0-24.136719-7.433594-29.578125-18.253907-2.242188 4.464844-3.515625 9.503907-3.515625 14.839844v1.226563c0 18.277343 14.816406 33.09375 33.09375 33.09375h68.707031c18.613281 0 33.703125-15.09375 33.703125-33.707032 0-5.570312-1.359375-10.824218-3.753906-15.453125-5.601563 10.839844-16.90625 18.253907-29.949219 18.253907zm0 0" fill="#ffcbbe"></path><path d="m217.484375 194.433594c0 18.617187-15.089844 33.707031-33.707031 33.707031h-68.703125c-18.277344 0-33.09375-14.816406-33.09375-33.09375v-1.222656c0-18.277344 14.816406-33.09375 33.09375-33.09375h68.703125c18.617187 0 33.707031 15.089843 33.707031 33.703125zm0 0" fill="#ffddcf"></path><path d="m183.78125 197.234375h-68.707031c-12.9375 0-24.136719-7.429687-29.578125-18.25-2.242188 4.460937-3.515625 9.5-3.515625 14.839844v1.222656c0 18.277344 14.816406 33.09375 33.09375 33.09375h68.707031c18.613281 0 33.703125-15.089844 33.703125-33.707031 0-5.570313-1.359375-10.820313-3.753906-15.449219-5.601563 10.839844-16.90625 18.25-29.949219 18.25zm0 0" fill="#ffcbbe"></path><path d="m234.390625 127.023438c0 18.613281-15.089844 33.707031-33.703125 33.707031h-68.707031c-18.277344 0-33.09375-14.816407-33.09375-33.09375v-1.226563c0-18.277344 14.816406-33.09375 33.09375-33.09375h68.707031c18.613281.003906 33.703125 15.09375 33.703125 33.707032zm0 0" fill="#ffddcf"></path><path d="m200.6875 129.824219h-68.707031c-12.9375 0-24.136719-7.429688-29.578125-18.253907-2.242188 4.464844-3.515625 9.503907-3.515625 14.839844v1.226563c0 18.277343 14.816406 33.09375 33.09375 33.09375h68.707031c18.613281 0 33.703125-15.089844 33.703125-33.707031 0-5.570313-1.359375-10.820313-3.753906-15.453126-5.601563 10.839844-16.90625 18.253907-29.949219 18.253907zm0 0" fill="#ffcbbe"></path><path d="m512 214.839844h-233.101562c-21.097657 0-38.203126-17.101563-38.203126-38.203125v-49.496094 19.671875c0 22.144531-12.027343 42.539062-31.40625 53.253906-12 6.632813-26.71875-2.046875-26.71875-15.761718v-91.714844c0-10.011719 8.117188-18.132813 18.132813-18.132813h48.207031c18.433594 0 34.847656 11.660157 40.914063 29.0625 6.066406 17.402344 22.480469 29.0625 40.914062 29.0625h170.960938c5.691406 0 10.300781 4.613281 10.300781 10.304688zm0 0" fill="#ffddcf"></path></svg>