<svg id="Layer_1" enable-background="new 0 0 64 64" viewBox="0 0 64 64" xmlns="http://www.w3.org/2000/svg"><g><g><g><path d="m34.2 34.6c-.2 0-.4-.1-.6-.2-.4-.3-.5-.9-.2-1.4.5-.7 12.5-17.1 30.3-15.2.5.1.9.5.9 1.1-.1.5-.6.9-1.1.9-16.7-1.7-28.4 14.3-28.5 14.4-.2.3-.5.4-.8.4z" fill="#59b247"></path></g><g><path d="m33.2 33.7c-.2 0-.3 0-.5-.1-.5-.3-.7-.9-.4-1.4.4-.7 9.7-17 27.3-19.4.5-.1 1.1.3 1.1.9.1.5-.3 1.1-.9 1.1-16.6 2.2-25.7 18.2-25.7 18.3-.2.4-.6.6-.9.6z" fill="#59b247"></path></g><g><path d="m31.1 31.6c-.3 0-.6-.1-.8-.4-.3-.4-.2-1.1.2-1.4.2-.1 16.1-11.8 14.4-28.5-.1-.5.3-1 .9-1.1.5-.1 1 .3 1.1.9 1.9 17.8-14.5 29.8-15.2 30.3-.2.1-.4.2-.6.2z" fill="#59b247"></path></g></g><g><path d="m38.2 54.1c-5.2 5.2-13.1 6.2-19.8 3.1-2.3-1.1-5.1-.5-6.8 1.4-2.8 3.1-6.8 5.1-11.4 5.1-.2 0-.5 0-.7 0 5.1-.9 9.4-4.4 11.3-9 .6-1.4.3-2.9-.5-4.1-5.3-7.3-5.1-17.2 1-23.4 2.5-2.5 5.6-4 9-4.6 5.8-1 12.1.9 16.8 5.6 4.8 4.8 6.7 11.4 5.6 17.2-.6 3.3-2.1 6.3-4.5 8.7z" fill="#ebebeb"></path><path d="m42.7 45.5-.6-.1c-.6-.1-1.1-.4-1.3-.9l-.9-1.7c-.2-.5-.7-.8-1.2-.9l-1.9-.4c-.6-.1-1-.5-1.3-1l-.7-1.8c-.2-.5-.6-.9-1.1-1l-1.9-.5c-.6-.2-1-.6-1.2-1.1l-.6-1.9c-.2-.5-.6-.9-1.1-1.1l-1.8-.7c-.5-.2-1-.7-1.1-1.2l-.4-1.9c-.1-.5-.5-1-1-1.2l-1.8-.8c-.5-.2-.9-.7-1-1.3l-.3-1.9c-.1-.5-.4-1-.9-1.2l-.4-.2c5.8-1 12.1.9 16.8 5.6 4.9 4.8 6.8 11.4 5.7 17.2z" fill="#e95c60"></path></g></g></svg>