<svg version="1.1" id="Capa_1" xmlns="http://www.w3.org/2000/svg" xmlns:xlink="http://www.w3.org/1999/xlink" x="0px" y="0px" viewBox="0 0 512 512" style="enable-background:new 0 0 512 512;" xml:space="preserve"><path style="fill:#969F59;" d="M469.634,402.337l-1.612,10.438C459.204,469.86,409.887,512,351.897,512l0,0 c-57.99,0-107.306-42.14-116.124-99.225l-1.612-10.438c-2.13-13.787-1.767-27.842,1.071-41.502l43.934-211.496 c7.136-34.35,37.512-58.986,72.731-58.986l0,0c35.219,0,65.596,24.636,72.731,58.986l43.934,211.496 C471.401,374.495,471.763,388.55,469.634,402.337z"></path><path style="fill:#8A8E54;" d="M469.634,402.337l-1.612,10.438C459.204,469.86,409.887,512,351.897,512l0,0 c-6.978,0-13.828-0.616-20.5-1.789c48.77-8.575,87.867-47.22,95.624-97.436l1.612-10.438c2.13-13.787,1.767-27.842-1.071-41.502 l-34.951-168.251c-1.357-6.53-9.419-8.947-14.144-4.241l0,0c-0.878,0.875-2.067,1.366-3.307,1.366h-2.331 c-1.239,0-2.428-0.491-3.307-1.366l-15.478-15.416c-1.83-1.823-4.79-1.823-6.621,0l-15.478,15.416 c-0.878,0.875-2.069,1.366-3.311,1.366s-2.432-0.491-3.31-1.366l-15.478-15.416c-1.83-1.823-4.79-1.823-6.621,0l-13.897,13.841 c-1.891,1.883-4.451,2.94-7.119,2.94h-3.093c-3.085,0-5.786-1.37-7.617-3.481l7.663-36.889c1.095-5.269,2.741-10.307,4.863-15.065 C295.161,119.39,312.929,110,332.546,110h28.739c-8.44-7.757-18.653-13.552-29.888-16.765c6.54-1.87,13.419-2.882,20.5-2.882l0,0 c35.219,0,65.596,24.636,72.731,58.986l7.663,36.889l0,0l0,0l36.271,174.607C471.401,374.495,471.763,388.55,469.634,402.337z"></path><path style="fill:#B8C76F;" d="M393.946,143.846l-15.478,15.416c-0.878,0.874-2.069,1.366-3.31,1.366h-2.323 c-1.242,0-2.432-0.491-3.31-1.366l-15.478-15.416c-1.828-1.821-4.793-1.821-6.621,0l-15.478,15.416 c-0.878,0.874-2.069,1.366-3.31,1.366l0,0c-1.242,0-2.432-0.491-3.31-1.366l-15.478-15.416c-1.828-1.821-4.793-1.821-6.621,0 l-13.897,13.841c-1.89,1.883-4.454,2.94-7.127,2.94h-3.084c-6.388,0-11.165-5.843-9.871-12.073l4.073-19.605 c5.81-27.971,30.546-48.031,59.224-48.031h38.703c28.678,0,53.414,20.061,59.224,48.031l4.073,19.605 c1.294,6.23-3.483,12.073-9.871,12.073h-3.084c-2.673,0-5.237-1.058-7.127-2.94l-13.897-13.841 C398.738,142.025,395.774,142.025,393.946,143.846z"></path><g><path style="fill:#A2B16F;" d="M345.912,0h11.519c10.529,0,18.756,9.055,17.709,19.489l-6.52,64.941 c-0.91,9.061-8.565,15.962-17.709,15.962l0,0c-9.301,0-17.034-7.134-17.745-16.371l-4.999-64.941 C327.374,8.787,335.547,0,345.912,0z"></path><path style="fill:#A2B16F;" d="M359.397,190.745v150.588c0,4.142-3.358,7.5-7.5,7.5s-7.5-3.358-7.5-7.5V190.745 c0-4.142,3.358-7.5,7.5-7.5S359.397,186.603,359.397,190.745z M419.763,311.352l-20.16-114.734 c-0.717-4.08-4.601-6.807-8.685-6.089c-4.08,0.717-6.806,4.605-6.089,8.685l20.16,114.734c0.64,3.641,3.805,6.204,7.378,6.204 c0.431,0,0.868-0.038,1.307-0.115C417.753,319.32,420.479,315.432,419.763,311.352z M312.876,190.529 c-4.079-0.715-7.968,2.009-8.685,6.089l-18.144,103.26c-0.717,4.08,2.009,7.968,6.089,8.685c0.439,0.077,0.875,0.115,1.307,0.115 c3.573,0,6.738-2.563,7.378-6.204l18.144-103.26C319.682,195.134,316.956,191.246,312.876,190.529z"></path></g><path style="fill:#FF7F54;" d="M42.113,407.575L42.113,407.575c-1.702-11.019-1.45-22.251,0.746-33.183l0,0 c8.946-44.548,48.218-76.615,93.832-76.615h67.545c45.614,0,84.886,32.066,93.832,76.615l0,0 c2.195,10.932,2.448,22.164,0.746,33.183l0,0C289.532,467.652,237.631,512,176.602,512h-12.278 C103.294,512,51.393,467.652,42.113,407.575z"></path><path style="fill:#F06C4A;" d="M298.812,407.575L298.812,407.575C289.532,467.652,237.631,512,176.602,512h-12.279 c-4.666,0-9.279-0.262-13.823-0.768c54.893-6.109,99.817-48.174,108.387-103.657l0,0c1.702-11.019,1.45-22.25-0.745-33.183l0,0 c-8.946-44.548-48.218-76.615-93.832-76.615h39.925c45.614,0,84.886,32.066,93.832,76.615l0,0 C300.262,385.324,300.514,396.555,298.812,407.575z"></path><path style="fill:#FFB16B;" d="M83.563,381.022c-4.328,8.29-16.984,6.112-17.967-3.188c-0.174-1.645-0.263-3.314-0.263-5.005 c0-17.769,9.843-33.239,24.374-41.255c8.209-4.529,17.272,4.59,12.933,12.902L83.563,381.022z"></path><path style="fill:#B8C76F;" d="M172.534,272.99l25.062-5.243c7.909-1.655,14.459,6.169,11.404,13.621l-4.654,11.351 c-0.998,2.433-0.998,5.159,0,7.591L209,311.66c3.056,7.452-3.495,15.275-11.404,13.621l-25.062-5.243 c-1.366-0.286-2.778-0.286-4.144,0l-25.062,5.243c-7.909,1.655-14.459-6.169-11.404-13.621l4.654-11.351 c0.998-2.433,0.998-5.159,0-7.591l-4.654-11.351c-3.056-7.452,3.495-15.275,11.404-13.621l25.062,5.243 C169.757,273.276,171.168,273.276,172.534,272.99z"></path><path style="fill:#969F59;" d="M183.002,296.514c0,4.142-3.358,7.5-7.5,7.5h-10.08c-4.142,0-7.5-3.358-7.5-7.5s3.358-7.5,7.5-7.5 h10.08C179.645,289.014,183.002,292.372,183.002,296.514z"></path></svg>