<!-- icon666.com - MILLIONS vector ICONS FREE --><svg id="Capa_1" enable-background="new 0 0 512 512" viewBox="0 0 512 512" xmlns="http://www.w3.org/2000/svg" xmlns:xlink="http://www.w3.org/1999/xlink"><linearGradient id="SVGID_1_" gradientUnits="userSpaceOnUse" x1="93.087" x2="274.359" y1="456.781" y2="456.781"><stop offset="0" stop-color="#cc8241"></stop><stop offset=".232" stop-color="#d48840"></stop><stop offset=".5984" stop-color="#eb973c"></stop><stop offset=".8547" stop-color="#ffa538"></stop><stop offset="1" stop-color="#cc8241"></stop></linearGradient><linearGradient id="lg1"><stop offset="0" stop-color="#dea861"></stop><stop offset=".2529" stop-color="#e0ae6c"></stop><stop offset=".6917" stop-color="#e6be88"></stop><stop offset="1" stop-color="#ebcba0"></stop></linearGradient><linearGradient id="SVGID_2_" gradientUnits="userSpaceOnUse" x1="35.855" x2="283.605" xlink:href="#lg1" y1="411.807" y2="411.807"></linearGradient><linearGradient id="SVGID_3_" gradientUnits="userSpaceOnUse" x1="150.789" x2="28.58" y1="422.071" y2="422.071"><stop offset="0" stop-color="#5d3645"></stop><stop offset="1" stop-color="#5d3645" stop-opacity="0"></stop></linearGradient><linearGradient id="SVGID_4_" gradientUnits="userSpaceOnUse" x1="43.891" x2="321.679" y1="326.75" y2="326.75"><stop offset="0" stop-color="#5d3645"></stop><stop offset=".2747" stop-color="#774f5e"></stop><stop offset=".5818" stop-color="#8e6575"></stop><stop offset=".7762" stop-color="#966d7d"></stop><stop offset="1" stop-color="#5d3645"></stop></linearGradient><linearGradient id="SVGID_5_" gradientUnits="userSpaceOnUse" x1="348.359" x2="222.966" y1="188.602" y2="63.21"><stop offset="0" stop-color="#cc8241"></stop><stop offset=".1997" stop-color="#d48840"></stop><stop offset=".5152" stop-color="#eb973c"></stop><stop offset=".7359" stop-color="#ffa538"></stop><stop offset="1" stop-color="#cc8241"></stop></linearGradient><linearGradient id="SVGID_6_" gradientTransform="matrix(.776 .631 -.631 .776 206.57 -320.602)" gradientUnits="userSpaceOnUse" x1="286.214" x2="465.078" xlink:href="#lg1" y1="190.723" y2="190.723"></linearGradient><linearGradient id="SVGID_7_" gradientTransform="matrix(-.776 -.631 -.631 .776 -1474.572 -1687.446)" gradientUnits="userSpaceOnUse" x1="-2713.879" x2="-2734.099" y1="384.542" y2="349.518"><stop offset="0" stop-color="#cc8241"></stop><stop offset=".1737" stop-color="#d48840"></stop><stop offset=".4482" stop-color="#eb973c"></stop><stop offset=".6402" stop-color="#ffa538"></stop><stop offset="1" stop-color="#cc8241"></stop></linearGradient><linearGradient id="SVGID_8_" gradientTransform="matrix(-.776 -.631 -.631 .776 -1474.572 -1687.446)" gradientUnits="userSpaceOnUse" x1="-2846.769" x2="-2846.769" xlink:href="#lg1" y1="485.924" y2="436.008"></linearGradient><g><path d="m283.603 401.562-247.746 20.622v28.472l.033-.003c-.029 16.449 9.88 32.159 30.2 43.891 44.787 25.858 123.018 22.615 174.734-7.243 28.294-16.335 42.754-37.25 42.746-57.081l.033-.003z" fill="url(#SVGID_1_)"></path><path d="m240.824 458.626c51.715-29.858 57.332-75.025 12.545-100.882-44.787-25.858-123.018-22.615-174.733 7.243s-57.332 75.025-12.545 100.882 123.018 22.615 174.733-7.243z" fill="url(#SVGID_2_)"></path><path d="m114.615 349.599c-12.804 3.917-24.993 9.045-35.978 15.388-28.347 16.366-42.841 37.332-42.778 57.197h-.001v28.472l.033-.003c-.029 16.448 9.88 32.158 30.2 43.89v-29.562h80.688c0 .001-21.287-79.194-32.164-115.382z" fill="url(#SVGID_3_)" opacity=".7"></path><path d="m251.849 280.626c0-50.875-41.243-92.118-92.118-92.118-50.875 0-92.118 41.243-92.118 92.118v138.915l.026-.002c.046 12.171 7.416 23.787 22.458 32.471 33.305 19.229 91.481 16.817 129.939-5.386 21.026-12.139 31.778-27.679 31.787-42.417l.026-.002z" fill="url(#SVGID_4_)"></path><ellipse cx="167.343" cy="328.138" fill="#fff" rx="25.301" ry="14.314" transform="matrix(.392 -.92 .92 .392 -200.118 353.638)"></ellipse><path d="m175.487 323.436c0-5.997-3.646-8.753-8.144-6.157-4.498 2.597-8.144 9.563-8.144 15.56s3.646 8.753 8.144 6.156c4.498-2.596 8.144-9.562 8.144-15.559z" fill="#43386b"></path><path d="m240.99 285.2c0-12.136-7.379-17.715-16.481-12.459-9.102 5.255-16.481 19.354-16.481 31.49s7.379 17.714 16.481 12.459c9.102-5.256 16.481-19.354 16.481-31.49z" fill="#fff"></path><path d="m232.652 290.013c0-5.997-3.646-8.753-8.144-6.157-4.498 2.597-8.144 9.563-8.144 15.56s3.646 8.753 8.144 6.156c4.498-2.595 8.144-9.562 8.144-15.559z" fill="#43386b"></path><g><path d="m451.761 115.058-148.17-101.292-114.233 140.485.02.014c-7.509 9.2-9.113 22.514-3.074 38.341 13.31 34.884 58.609 68.701 101.178 75.531 23.29 3.737 40.916-1.392 49.944-12.505l.02.013z" fill="url(#SVGID_5_)"></path><path d="m401.806 127.539c42.569 6.83 66.288-15.912 52.978-50.796s-58.609-68.701-101.178-75.531c-42.569-6.83-66.288 15.912-52.978 50.796s58.609 68.7 101.178 75.531z" fill="url(#SVGID_6_)"></path><g><path d="m373.774 181.53-.007.004c-1.485-3.78-5.177-6.516-10.901-7.435-12.74-2.044-30.687 5.67-40.086 17.229-5.122 6.299-6.641 12.437-4.908 17.053l-.008.003 101.678 266.342 55.904-26.873z" fill="url(#SVGID_7_)"></path><path d="m470.544 464.947c9.4-11.56 6.692-22.587-6.048-24.632-12.74-2.044-30.687 5.67-40.086 17.229s-6.691 22.587 6.048 24.631c12.739 2.045 30.687-5.668 40.086-17.228z" fill="url(#SVGID_8_)"></path></g></g></g></svg>