<!-- icon666.com - MILLIONS vector ICONS FREE --><svg version="1.1" id="Layer_1" xmlns="http://www.w3.org/2000/svg" xmlns:xlink="http://www.w3.org/1999/xlink" x="0px" y="0px" viewBox="0 0 473.935 473.935" style="enable-background:new 0 0 473.935 473.935;" xml:space="preserve"><circle style="fill:#3CB881;" cx="236.967" cy="236.967" r="236.967"></circle><g><path style="fill:#FFFFFF;" d="M129.204,325.955c0,6.507,5.268,11.775,11.772,11.775h45.553c6.503,0,11.779-5.268,11.779-11.775 V147.95c0-6.499-5.276-11.772-11.779-11.772h-45.549c-6.503,0-11.772,5.272-11.772,11.772v178.004H129.204z"></path><path style="fill:#FFFFFF;" d="M330.026,133.556c8.187,0,14.821,3.888,14.821,12.071v182.655c0,8.183-6.634,12.071-14.821,12.071 c-17.246,0-91.76-87.113-91.76-102.465S322.228,133.556,330.026,133.556z"></path></g></svg>