<!-- icon666.com - MILLIONS vector ICONS FREE --><svg version="1.1" id="Layer_1" xmlns="http://www.w3.org/2000/svg" xmlns:xlink="http://www.w3.org/1999/xlink" x="0px" y="0px" viewBox="0 0 473.935 473.935" style="enable-background:new 0 0 473.935 473.935;" xml:space="preserve"><circle style="fill:#3CB881;" cx="236.967" cy="236.967" r="236.967"></circle><g><path style="fill:#FFFFFF;" d="M144.325,134.214c-8.135,0-14.735,3.858-14.735,12v181.608c0,8.135,6.601,12,14.735,12 c17.16,0,91.243-86.615,91.243-101.87C235.568,222.681,152.077,134.214,144.325,134.214z"></path><path style="fill:#FFFFFF;" d="M344.005,325.509c0,6.47-5.246,11.708-11.716,11.708h-45.287c-6.47,0-11.716-5.239-11.716-11.708 V148.534c0-6.47,5.246-11.708,11.716-11.708h45.291c6.47,0,11.716,5.239,11.716,11.708v176.975H344.005z"></path></g></svg>