<!-- icon666.com - MILLIONS vector ICONS FREE --><svg id="Layer_2" viewBox="0 0 32 32" xmlns="http://www.w3.org/2000/svg" data-name="Layer 2"><path d="m25.358 1.254a2.23 2.23 0 0 0 -2.258.046l-10.883 6.7h-3.517a3.2 3.2 0 0 0 -3.2 3.2v9.6a3.2 3.2 0 0 0 3.2 3.2h3.521l10.879 6.7a2.229 2.229 0 0 0 3.4-1.9v-25.6a2.229 2.229 0 0 0 -1.142-1.946zm-13.858 20.746h-2.8a1.2 1.2 0 0 1 -1.2-1.2v-9.6a1.2 1.2 0 0 1 1.2-1.2h2.8zm13 6.8a.23.23 0 0 1 -.35.2l-10.65-6.559v-12.882l10.65-6.554a.215.215 0 0 1 .232 0 .218.218 0 0 1 .118.2z" fill="#000000" style="fill: rgb(123, 117, 117);"></path></svg>