<!-- icon666.com - MILLIONS vector ICONS FREE --><svg viewBox="0 0 48 48" xmlns="http://www.w3.org/2000/svg"><g id="fast_forward" data-name="fast forward"><path d="m23.389 20.306-14.772-11.637a2.853 2.853 0 0 0 -3.1-.374 4.425 4.425 0 0 0 -2.207 4.069v23.272a4.424 4.424 0 0 0 2.207 4.069 2.88 2.88 0 0 0 1.259.3 2.972 2.972 0 0 0 1.845-.672l14.768-11.633a4.685 4.685 0 0 0 1.611-3.7 4.68 4.68 0 0 0 -1.611-3.694z" fill="#000000" style="fill: rgb(255, 255, 255);"></path><path d="m43.082 20.305-14.77-11.636a2.855 2.855 0 0 0 -3.1-.374 4.421 4.421 0 0 0 -2.212 4.069v23.272a4.427 4.427 0 0 0 2.208 4.07 2.893 2.893 0 0 0 1.26.3 2.976 2.976 0 0 0 1.844-.672l14.769-11.64a4.675 4.675 0 0 0 1.613-3.694 4.679 4.679 0 0 0 -1.612-3.695z" fill="#000000" style="fill: rgb(255, 255, 255);"></path></g></svg>