<!-- icon666.com - MILLIONS vector ICONS FREE --><svg fill="none" viewBox="0 0 24 24" xmlns="http://www.w3.org/2000/svg" xmlns:xlink="http://www.w3.org/1999/xlink"><clipPath id="clip0_339_5367"><path d="m0 0h24v24h-24z" fill="#000000" style="fill: rgb(255, 255, 255);"></path></clipPath><g clip-path="url(#clip0_339_5367)"><path d="m20.07 9.942-10.43521-6.26114c-1.18971-.71383-1.78456-1.07074-2.27401-1.02512-.42678.03978-.81615.26024-1.06984.60574-.29094.39622-.29094 1.08993-.29094 2.47736v12.52226c0 1.3875 0 2.0812.29094 2.4774.25369.3455.64306.5659 1.06984.6057.48945.0456 1.0843-.3113 2.27401-1.0251l10.43521-6.2611c1.1314-.6788 1.697-1.0182 1.8889-1.4571.1675-.3831.1675-.8187 0-1.2018-.1919-.4389-.7575-.7783-1.8889-1.4571z" fill="rgb(0,0,0)" style="fill: rgb(255, 255, 255);"></path></g></svg>