<!-- icon666.com - MILLIONS vector ICONS FREE --><svg version="1.1" id="Layer_1" xmlns="http://www.w3.org/2000/svg" xmlns:xlink="http://www.w3.org/1999/xlink" x="0px" y="0px" viewBox="0 0 496.158 496.158" style="enable-background:new 0 0 496.158 496.158;" xml:space="preserve"><path style="fill: rgb(53, 113, 128);" d="M496.158,248.085c0-137.021-111.07-248.082-248.077-248.082C111.07,0.003,0,111.063,0,248.085 c0,137.002,111.07,248.07,248.081,248.07C385.088,496.155,496.158,385.087,496.158,248.085z" fill="#25B7D3"></path><g><path style="" d="M432.878,241.493l-117.8-76.494c-2.351-1.527-5.351-1.645-7.815-0.308 c-2.465,1.339-3.998,3.919-3.998,6.724v45.432c-32.018-0.647-80.905,9.505-100.451,51.855c-2.758,5.975-5.141,11.736-7.443,17.309 c-13.223,31.992-18.698,45.234-64.982,45.234c-16.898,0-30.597,13.699-30.597,30.598s13.698,30.598,30.597,30.598 c87.207,0,107.051-48.002,121.537-83.053c2.166-5.24,4.213-10.191,6.451-15.043c6.607-14.312,32.938-16.424,44.889-16.207v50.854 c0,2.842,1.574,5.449,4.09,6.771c1.117,0.586,2.34,0.879,3.559,0.879c1.521,0,3.039-0.455,4.338-1.35l117.8-81.084 c2.104-1.447,3.347-3.85,3.312-6.402C436.329,245.252,435.022,242.884,432.878,241.493z" fill="#FFFFFF"></path><path style="" d="M266.222,210.218c-3.45-2.18-6.238-4.925-7.846-8.406c-2.238-4.85-4.285-9.801-6.451-15.042 c-14.486-35.051-34.33-83.052-121.537-83.052c-16.898,0-30.597,13.699-30.597,30.598s13.698,30.598,30.597,30.598 c46.284,0,51.76,13.241,64.982,45.232c2.303,5.572,4.686,11.335,7.443,17.311c2.037,4.414,4.405,8.462,7.03,12.197 C225.003,222.913,246.09,214.164,266.222,210.218z" fill="#FFFFFF"></path></g></svg>