<!-- icon666.com - MILLIONS vector ICONS FREE --><svg id="Layer_2" viewBox="0 0 32 32" xmlns="http://www.w3.org/2000/svg" data-name="Layer 2"><path d="m20.858 1.223a2.228 2.228 0 0 0 -2.256.048l-10.885 6.698h-3.517a3.2 3.2 0 0 0 -3.2 3.196v9.608a3.2 3.2 0 0 0 3.2 3.2h3.517l10.886 6.7a2.229 2.229 0 0 0 3.4-1.9v-25.604a2.229 2.229 0 0 0 -1.145-1.946zm-13.858 20.746h-2.8a1.2 1.2 0 0 1 -1.2-1.2v-9.604a1.2 1.2 0 0 1 1.2-1.2h2.8zm13 6.8a.218.218 0 0 1 -.117.2.221.221 0 0 1 -.233-.005l-10.65-6.554v-12.882l10.65-6.554a.214.214 0 0 1 .233-.005.218.218 0 0 1 .117.2z" fill="#000000" style="fill: rgb(123, 117, 117);"></path><path d="m24.4 12.2a1 1 0 0 0 -.2 1.4 4 4 0 0 1 0 4.8 1 1 0 0 0 1.6 1.2 6 6 0 0 0 0-7.2 1 1 0 0 0 -1.4-.2z" fill="#000000" style="fill: rgb(123, 117, 117);"></path><path d="m28.777 9.714a1 1 0 1 0 -1.554 1.259 8 8 0 0 1 0 10.055 1 1 0 1 0 1.554 1.258 10 10 0 0 0 0-12.572z" fill="#000000" style="fill: rgb(123, 117, 117);"></path></svg>