<!-- icon666.com - MILLIONS vector ICONS FREE --><svg id="Layer" enable-background="new 0 0 512 512" viewBox="0 0 512 512" xmlns="http://www.w3.org/2000/svg"><g fill="#f0eaea"><path d="m128 0h-74c-29.775 0-54 24.224-54 54v74c0 13.255 10.745 24 24 24s24-10.745 24-24v-74c0-3.309 2.691-6 6-6h74c13.255 0 24-10.745 24-24s-10.745-24-24-24z"></path><path d="m128 464h-74c-3.309 0-6-2.691-6-6v-74c0-13.255-10.745-24-24-24s-24 10.745-24 24v74c0 29.776 24.225 54 54 54h74c13.255 0 24-10.745 24-24s-10.745-24-24-24z"></path><path d="m488 360c-13.255 0-24 10.745-24 24v74c0 3.309-2.691 6-6 6h-74c-13.255 0-24 10.745-24 24s10.745 24 24 24h74c29.775 0 54-24.224 54-54v-74c0-13.255-10.745-24-24-24z"></path><path d="m458 0h-74c-13.255 0-24 10.745-24 24s10.745 24 24 24h74c3.309 0 6 2.691 6 6v74c0 13.255 10.745 24 24 24s24-10.745 24-24v-74c0-29.776-24.225-54-54-54z"></path></g><path d="m320 232h-40v-40c0-13.255-10.745-24-24-24s-24 10.745-24 24v40h-40c-13.255 0-24 10.745-24 24s10.745 24 24 24h40v40c0 13.255 10.745 24 24 24s24-10.745 24-24v-40h40c13.255 0 24-10.745 24-24s-10.745-24-24-24z" fill="#ffb4be"></path></svg>