<!-- icon666.com - MILLIONS vector ICONS FREE --><svg xmlns="http://www.w3.org/2000/svg" viewBox="0 0 32 32"><g id="Arrow_Gymph" data-name="Arrow Gymph"><path d="M18.625,21.2246h-5.25a2.6023,2.6023,0,0,1-2.6-2.6v-5.25a2.6023,2.6023,0,0,1,2.6-2.6h5.25a2.6023,2.6023,0,0,1,2.6,2.6v5.25A2.6023,2.6023,0,0,1,18.625,21.2246Zm-5.25-9.4492a1.6017,1.6017,0,0,0-1.6,1.6v5.25a1.6017,1.6017,0,0,0,1.6,1.6h5.25a1.6017,1.6017,0,0,0,1.6-1.6v-5.25a1.6017,1.6017,0,0,0-1.6-1.6Z"></path><path d="M8.7227,10.8564a2.1287,2.1287,0,0,1-.9082-.2031A2.1,2.1,0,0,1,7,9.9346L5.6309,8.1426,5.498,8.835a1.749,1.749,0,0,1-2.9541.9072l-.02-.0215A1.8568,1.8568,0,0,1,2.0088,8.22V8.2188l.5176-4.6514a1.174,1.174,0,0,1,1.042-1.043l4.6523-.5166a1.85,1.85,0,0,1,1.5215.5332l.0205.0215a1.7487,1.7487,0,0,1-.9268,2.9346l-.6826.1308L9.9551,7.0127a2.0678,2.0678,0,0,1,.6992.7988,2.1323,2.1323,0,0,1-1.9316,3.0449ZM5.35,6.4521a.502.502,0,0,1,.3975.1963L7.8076,9.3447a1.1564,1.1564,0,0,0,.4336.4043,1.1341,1.1341,0,0,0,1.51-1.51,1.1276,1.1276,0,0,0-.3867-.42L6.6621,5.7422a.5.5,0,0,1,.2109-.8877l1.7754-.34A.7485.7485,0,0,0,9.0361,3.25l-.0146-.0156A.852.852,0,0,0,8.332,3.002L3.68,3.5186a.1788.1788,0,0,0-.1592.16l-.5176,4.65a.86.86,0,0,0,.2471.7041l.0146.0156a.7495.7495,0,0,0,1.251-.4013l.3428-1.7891a.4989.4989,0,0,1,.376-.3926A.4727.4727,0,0,1,5.35,6.4521Z"></path><path d="M23.2734,10.8564a2.1323,2.1323,0,0,1-1.9326-3.0429A2.1034,2.1034,0,0,1,22.06,6.999l1.7832-1.3711L23.16,5.4971A1.7491,1.7491,0,0,1,22.252,2.543a1.8563,1.8563,0,0,1,1.5234-.5352l4.6523.5166a1.174,1.174,0,0,1,1.042,1.043l.5176,4.6514V8.22A1.8548,1.8548,0,0,1,29.4531,9.74,1.7486,1.7486,0,0,1,26.498,8.835l-.1328-.6914L24.9834,9.9521a2.0669,2.0669,0,0,1-.8027.7012A2.1218,2.1218,0,0,1,23.2734,10.8564Zm.294-7.86a.8531.8531,0,0,0-.6065.2519.7493.7493,0,0,0,.3868,1.2666l1.7753.34a.5.5,0,0,1,.211.8877L22.65,7.8057a1.1685,1.1685,0,0,0-.4063.4355,1.1339,1.1339,0,0,0,1.51,1.5078,1.1158,1.1158,0,0,0,.4219-.3867L26.249,6.6484a.4937.4937,0,0,1,.5127-.1826.4989.4989,0,0,1,.376.3926l.3428,1.7891a.7477.7477,0,0,0,1.2636.3877.8617.8617,0,0,0,.2491-.7061l-.5176-4.65a.1788.1788,0,0,0-.1592-.16L23.6641,3.002A.7855.7855,0,0,0,23.5674,2.9961Z"></path><path d="M8.4307,30a1.8949,1.8949,0,0,1-.21-.0117l-4.6523-.5166a1.1741,1.1741,0,0,1-1.042-1.043l-.5176-4.6514v-.0009a1.8584,1.8584,0,0,1,.5332-1.52,1.7485,1.7485,0,0,1,2.956.9052l.1329.6914,1.3818-1.8086a2.055,2.055,0,0,1,.8027-.7011,2.1335,2.1335,0,0,1,2.84,2.84,2.1034,2.1034,0,0,1-.7188.8145L8.1533,26.3682l.6826.1308a1.7482,1.7482,0,0,1,.9073,2.9541A1.8447,1.8447,0,0,1,8.4307,30ZM3.0029,23.667l.5176,4.65a.1788.1788,0,0,0,.1592.16l4.6523.5166a.8481.8481,0,0,0,.7022-.2461.7484.7484,0,0,0-.3858-1.2666l-1.7754-.34a.5.5,0,0,1-.2109-.8877L9.3457,24.19a1.1685,1.1685,0,0,0,.4063-.4355,1.1339,1.1339,0,0,0-1.51-1.5078,1.1144,1.1144,0,0,0-.4219.3857L5.7471,25.3477a.489.489,0,0,1-.5127.1826.4989.4989,0,0,1-.376-.3926l-.3428-1.7891A.7363.7363,0,0,0,4,22.7744a.745.745,0,0,0-.749.1865.8632.8632,0,0,0-.2481.7061Z"></path><path d="M23.5654,30a1.8456,1.8456,0,0,1-1.2929-.5273l-.0205-.02A1.7488,1.7488,0,0,1,23.16,26.499l.6826-.1308L22.041,24.9834a2.0678,2.0678,0,0,1-.6992-.7988,2.1337,2.1337,0,0,1,2.84-2.8418,2.0831,2.0831,0,0,1,.8145.72l1.3691,1.791.1328-.6924a1.748,1.748,0,0,1,2.9346-.9257c.0069.0068.0147.0126.0215.0205a1.8584,1.8584,0,0,1,.5332,1.52v.0009L29.47,28.4287a1.1741,1.1741,0,0,1-1.042,1.043l-4.6523.5166A1.9071,1.9071,0,0,1,23.5654,30Zm-.6191-1.2676.0156.0156a.846.846,0,0,0,.7022.2461l4.6523-.5166a.1788.1788,0,0,0,.1592-.16l.5176-4.65a.86.86,0,0,0-.2344-.6914l-.0147-.0147a.7479.7479,0,0,0-1.2636.3877l-.3428,1.7891a.4989.4989,0,0,1-.376.3926.4908.4908,0,0,1-.5127-.1826l-2.06-2.6963a1.15,1.15,0,0,0-.4336-.4043,1.1173,1.1173,0,0,0-1.1231,1.93l2.7022,2.0771a.5.5,0,0,1-.211.8877l-1.7753.34a.7486.7486,0,0,0-.4014,1.251Z"></path></g></svg>