<!-- icon666.com - MILLIONS vector ICONS FREE --><svg id="Icons" viewBox="0 0 74 74" xmlns="http://www.w3.org/2000/svg"><path d="m10.61 59.44a1 1 0 0 1 -.779-.373c-.627-.778-1.24-1.6-1.822-2.436a1 1 0 0 1 1.642-1.142c.556.8 1.141 1.582 1.738 2.324a1 1 0 0 1 -.779 1.627z"></path><path d="m37 72a34.63 34.63 0 0 1 -12.952-2.482 1 1 0 1 1 .744-1.856 32.66 32.66 0 0 0 12.208 2.338 33 33 0 1 0 -33-33 32.66 32.66 0 0 0 2.338 12.208 1 1 0 1 1 -1.856.744 34.63 34.63 0 0 1 -2.482-12.952 35 35 0 1 1 35 35z"></path><path d="m17.939 66.17a1 1 0 0 1 -.57-.179c-.838-.582-1.658-1.195-2.436-1.822a1 1 0 1 1 1.254-1.558c.742.6 1.524 1.182 2.324 1.738a1 1 0 0 1 -.572 1.821z"></path><path d="m37 64a27 27 0 1 1 27-27 27.03 27.03 0 0 1 -27 27zm0-52a25 25 0 1 0 25 25 25.028 25.028 0 0 0 -25-25z"></path><path d="m26.87 46.852a2.7 2.7 0 0 1 -2.7-2.7v-14.305a2.7 2.7 0 0 1 4.164-2.265l11.052 7.153a2.7 2.7 0 0 1 0 4.53l-11.05 7.153a2.689 2.689 0 0 1 -1.466.434zm0-17.706a.727.727 0 0 0 -.338.087.684.684 0 0 0 -.365.614v14.306a.7.7 0 0 0 1.078.587l11.055-7.154a.7.7 0 0 0 0-1.172l-11.05-7.154a.682.682 0 0 0 -.375-.114z"></path><path d="m46.766 47.5a3.316 3.316 0 0 1 -3.313-3.312v-14.376a3.313 3.313 0 0 1 6.625 0v14.376a3.316 3.316 0 0 1 -3.312 3.312zm0-19a1.314 1.314 0 0 0 -1.313 1.312v14.376a1.313 1.313 0 0 0 2.625 0v-14.376a1.314 1.314 0 0 0 -1.312-1.312z"></path></svg>