<!-- icon666.com - MILLIONS vector ICONS FREE --><svg id="Layer" enable-background="new 0 0 512 512" viewBox="0 0 512 512" xmlns="http://www.w3.org/2000/svg"><path d="m408 512h-304c-57.346 0-104-46.654-104-104v-304c0-57.346 46.654-104 104-104h304c57.346 0 104 46.654 104 104v304c0 57.346-46.654 104-104 104z" fill="#f0eaea"></path><path d="m194.071 408.027c-5.006 0-10.054-1.121-14.8-3.402-11.887-5.713-19.271-17.455-19.271-30.644v-235.962c0-13.188 7.384-24.93 19.271-30.644s25.67-4.145 35.968 4.093l147.968 117.957c8.142 6.513 12.793 16.19 12.793 26.575s-4.651 20.063-12.761 26.55l-148.031 118.007c-6.168 4.934-13.605 7.47-21.137 7.47z" fill="#ffb4be"></path></svg>