<!-- icon666.com - MILLIONS vector ICONS FREE --><svg id="Icons" viewBox="0 0 74 74" xmlns="http://www.w3.org/2000/svg"><path d="m65.171 18.94a1 1 0 0 1 -.822-.429c-.569-.817-1.137-1.577-1.739-2.323a1 1 0 0 1 1.559-1.255c.631.783 1.227 1.58 1.822 2.436a1 1 0 0 1 -.82 1.571z"></path><path d="m37 72a35 35 0 0 1 0-70 34.63 34.63 0 0 1 12.952 2.482 1 1 0 1 1 -.744 1.856 32.656 32.656 0 0 0 -12.208-2.338 33 33 0 1 0 33 33 32.648 32.648 0 0 0 -2.338-12.208 1 1 0 0 1 1.856-.744 34.622 34.622 0 0 1 2.482 12.952 35.04 35.04 0 0 1 -35 35z"></path><path d="m58.439 11.61a1 1 0 0 1 -.626-.221c-.754-.607-1.515-1.176-2.324-1.738a1 1 0 1 1 1.141-1.642c.836.58 1.656 1.194 2.437 1.822a1 1 0 0 1 -.628 1.779z"></path><path d="m37 64a27 27 0 1 1 27-27 27.03 27.03 0 0 1 -27 27zm0-52a25 25 0 1 0 25 25 25.028 25.028 0 0 0 -25-25z"></path><path d="m47.13 46.852a2.684 2.684 0 0 1 -1.466-.434l-11.052-7.153a2.7 2.7 0 0 1 0-4.53l11.052-7.153a2.7 2.7 0 0 1 4.164 2.265v14.306a2.7 2.7 0 0 1 -2.7 2.7zm-11.43-9.266 11.05 7.154a.7.7 0 0 0 1.078-.587v-14.306a.7.7 0 0 0 -1.078-.587l-11.05 7.154a.7.7 0 0 0 0 1.172z"></path><path d="m27.234 47.5a3.316 3.316 0 0 1 -3.312-3.312v-14.376a3.313 3.313 0 0 1 6.625 0v14.376a3.316 3.316 0 0 1 -3.313 3.312zm0-19a1.314 1.314 0 0 0 -1.312 1.312v14.376a1.313 1.313 0 0 0 2.625 0v-14.376a1.314 1.314 0 0 0 -1.313-1.312z"></path></svg>