<!-- icon666.com - MILLIONS vector ICONS FREE --><svg id="Layer" enable-background="new 0 0 512 512" viewBox="0 0 512 512" xmlns="http://www.w3.org/2000/svg"><path d="m277.94.003c4.387 0 8.814.853 13.046 2.605 12.751 5.281 20.989 17.611 20.989 31.412v443.959c0 13.801-8.238 26.131-20.989 31.412-12.749 5.28-27.294 2.389-37.053-7.37-.13-.13-.259-.262-.386-.395l-212.221-222.207c-.049-.051-.097-.103-.146-.154-12.241-13.046-12.241-33.483 0-46.529.049-.052.097-.104.146-.154l212.221-222.209c.127-.133.256-.265.386-.395 6.519-6.519 15.178-9.975 24.007-9.975zm-219.257 249.154h-.01z" fill="#f0eaea"></path><path d="m403.975 0h32c24.262 0 44 19.738 44 44v424c0 24.262-19.738 44-44 44h-32c-24.262 0-44-19.738-44-44v-424c0-24.262 19.738-44 44-44zm0 464h-.01z" fill="#dccfcf"></path></svg>