<!-- icon666.com - MILLIONS vector ICONS FREE --><svg id="Layer" enable-background="new 0 0 512 512" viewBox="0 0 512 512" xmlns="http://www.w3.org/2000/svg"><path d="m280 456h-24c-5.27 0-10.393-1.734-14.579-4.936l-136-104c-5.938-4.541-9.421-11.588-9.421-19.064v-144c0-7.476 3.483-14.523 9.421-19.064l136-104c4.186-3.202 9.309-4.936 14.579-4.936h24c13.255 0 24 10.745 24 24v352c0 13.255-10.745 24-24 24z" fill="#f0eaea"></path><path d="m357.934 366.94c-5.834 0-11.682-2.114-16.3-6.391-9.726-9.005-10.31-24.19-1.304-33.916 17.843-19.269 27.67-44.354 27.67-70.633s-9.827-51.364-27.67-70.634c-9.006-9.726-8.422-24.911 1.304-33.916 9.726-9.007 24.91-8.421 33.916 1.303 26.084 28.17 40.45 64.838 40.45 103.247s-14.366 75.077-40.45 103.247c-4.73 5.107-11.164 7.693-17.616 7.693z" fill="#00e1d7"></path><path d="m422.19 438.59c-6.154 0-12.306-2.352-16.994-7.053-9.36-9.385-9.339-24.581.046-33.94 37.891-37.788 58.758-88.075 58.758-141.597s-20.867-103.809-58.758-141.597c-9.385-9.359-9.406-24.556-.046-33.94 9.359-9.387 24.555-9.406 33.941-.047 46.987 46.859 72.863 109.216 72.863 175.584s-25.876 128.725-72.863 175.584c-4.684 4.671-10.816 7.006-16.947 7.006z" fill="#00e1d7"></path><path d="m112 352h-68c-24.301 0-44-19.699-44-44v-104c0-24.301 19.699-44 44-44h68z" fill="#dccfcf"></path></svg>